<?xml version="1.0" encoding="UTF-8" standalone="no"?><!-- Created with Inkscape (http://www.inkscape.org/) -->

<svg xmlns:cc="http://creativecommons.org/ns#" xmlns:dc="http://purl.org/dc/elements/1.1/"
	xmlns:inkscape="http://www.inkscape.org/namespaces/inkscape" xmlns:rdf="http://www.w3.org/1999/02/22-rdf-syntax-ns#"
	xmlns:sodipodi="http://sodipodi.sourceforge.net/DTD/sodipodi-0.dtd"
	height="480" id="svg2" version="1.1" width="800"
	xmlns="http://www.w3.org/2000/svg" inkscape:export-filename="/Users/monty/Dropbox/Projects/MouseInvasion/res/drawable/gameover.png" inkscape:export-xdpi="90"
	inkscape:export-ydpi="90"
	inkscape:version="0.48.4 r9943 custom" sodipodi:docname="gameover.svg">
	<defs id="defs4">
		<filter height="1.4864993" id="filter3916" width="1.2953621" x="-0.14768103"
			y="-0.24324967" inkscape:collect="always">
			<feGaussianBlur id="feGaussianBlur3918" stdDeviation="2.2662566"
				inkscape:collect="always" />
		</filter>
		<filter id="filter3948" inkscape:collect="always">
			<feGaussianBlur id="feGaussianBlur3950" stdDeviation="0.87351502"
				inkscape:collect="always" />
		</filter>
		<filter height="1.3422068" id="filter3962" width="1.2089373" x="-0.10446867"
			y="-0.1711034" inkscape:collect="always">
			<feGaussianBlur id="feGaussianBlur3964" stdDeviation="1.6865829"
				inkscape:collect="always" />
		</filter>
		<filter height="1.2249922" id="filter3970" width="1.0911405" x="-0.045570262"
			y="-0.11249609" inkscape:collect="always">
			<feGaussianBlur id="feGaussianBlur3972" stdDeviation="0.76826728"
				inkscape:collect="always" />
		</filter>
		<filter height="1.3151092" id="filter3974" width="1.2205154" x="-0.1102577"
			y="-0.15755462" inkscape:collect="always">
			<feGaussianBlur id="feGaussianBlur3976" stdDeviation="1.2995128"
				inkscape:collect="always" />
		</filter>
		<filter height="1.1528235" id="filter3982" width="1.313151" x="-0.15657548"
			y="-0.076411775" inkscape:collect="always">
			<feGaussianBlur id="feGaussianBlur3984" stdDeviation="1.7069296"
				inkscape:collect="always" />
		</filter>
		<filter height="1.1577936" id="filter3986" width="1.2941654" x="-0.14708271"
			y="-0.078896779" inkscape:collect="always">
			<feGaussianBlur id="feGaussianBlur3988" stdDeviation="1.7739411"
				inkscape:collect="always" />
		</filter>
	</defs>
	<sodipodi:namedview bordercolor="#666666" borderopacity="1.0" id="base" pagecolor="#ffffff"
		showgrid="false" inkscape:current-layer="layer1" inkscape:cx="322.2692"
		inkscape:cy="210.45074" inkscape:document-units="px" inkscape:pageopacity="0.0"
		inkscape:pageshadow="2" inkscape:window-height="1036" inkscape:window-maximized="0"
		inkscape:window-width="1855" inkscape:window-x="65" inkscape:window-y="22"
		inkscape:zoom="0.9899495" />
	<metadata id="metadata7">
		<rdf:RDF>
			<cc:Work rdf:about="">
				<dc:format>image/svg+xml</dc:format>
				<dc:type rdf:resource="http://purl.org/dc/dcmitype/StillImage" />
				<dc:title />
			</cc:Work>
		</rdf:RDF>
	</metadata>
	<g id="layer1" transform="translate(0,-572.36218)" inkscape:groupmode="layer"
		inkscape:label="Layer 1">
		<rect style="opacity:1;fill:#ffffff;fill-opacity:1;fill-rule:nonzero;stroke:none"
			height="558.61438" id="rect3017" transform="translate(0,572.36218)" width="862.67029" x="-24.24366"
			y="-31.137184" />
		<g id="g3994" transform="translate(135.60372,-31.569042)">
			<path style="fill:#000000;stroke:none" d="m 209.2609,934.06232 c -14.87256,-23.57434 -28.45802,-48.7956 -30.04822,-77.24335 -7.14003,-22.22307 -5.50123,-44.73398 -5.88872,-67.44164 -11.49378,-17.37008 -2.53888,-49.30527 -9.45384,-68.93097 43.97427,-20.68359 69.7913,56.48442 97.69455,52.72092 49.35218,3.2731 67.03845,-55.9134 109.07204,-54.21422 -10.82928,16.24841 1.89846,37.75099 -2.90605,54.12178 -8.9935,20.23544 -26.08374,39.463 -18.62361,63.01693 2.83696,35.63874 -4.05938,73.27479 -28.50787,100.7173 -28.55013,51.07403 -90.5807,31.8823 -111.33828,-2.74675 z" id="path2989"
				inkscape:connector-curvature="0"
				sodipodi:nodetypes="cccccccccc" />
			<path style="fill:#ff0000;stroke:none" d="m 194.95944,808.91541 c 42.13544,-15.78181 66.23736,66.95944 38.99047,52.30318 -20.79566,-3.12718 -33.95889,-22.57795 -40.89106,-40.77626 -0.92562,-3.88481 -0.44398,-8.2078 1.90059,-11.52692 z" id="path2993"
				inkscape:connector-curvature="0"
				sodipodi:nodetypes="cccc" />
			<path style="fill:#ff0000;stroke:none" d="m 301.07902,819.72899 c 2.58951,-7.91693 12.89436,-12.23339 21.3468,-13.12204 8.14754,-2.17445 17.52142,4.93625 13.96734,13.65906 -24.47624,52.29409 -63.96753,61.8718 -35.31414,-0.53702 z" id="path2995"
				inkscape:connector-curvature="0"
				sodipodi:nodetypes="cccc" />
			<path style="fill:#800000;stroke:none" d="m 259.49848,932.46634 c 2.31979,-0.62675 5.27792,10.84985 10.94384,5.43186 3.59067,-3.57754 3.58986,-7.79082 9.79481,-3.86322 6.69331,0.0148 9.14346,5.75425 10.74295,10.90603 2.60251,5.08201 3.14083,14.41129 -5.25986,11.52922 -5.47847,-2.29122 -12.1665,0.41588 -16.89163,-1.90489 -1.63841,-3.11604 1.80095,-11.13954 -1.22732,-11.62006 -0.15464,5.13767 1.99648,16.18236 -6.86718,11.7425 -5.51776,-1.53394 -12.42908,5.32893 -16.74659,-0.78808 1.00447,-5.47434 1.77303,-11.56793 5.46896,-15.93428 2.16977,-2.16449 6.22159,-6.51685 10.04202,-5.49908 z" id="path3059"
				inkscape:connector-curvature="0"
				sodipodi:nodetypes="ccccccccccc" />
			<path style="opacity:0.22018349;fill:#800000;stroke:none;filter:url(#filter3986)" d="m 238.35364,875.12281 c 10.28329,14.52735 16.24897,31.69804 19.41757,49.10356 -8.06255,15.30498 -19.67929,-11.16094 -24.06404,-18.54009 -5.43538,-8.93801 -10.03549,-34.20845 7.66853,-30.33759"
				id="path3066"
				inkscape:connector-curvature="0" />
			<path style="opacity:0.22018349;fill:#800000;stroke:none;filter:url(#filter3982)" d="m 283.56309,930.00397 c -3.24997,-4.43991 -2.87477,-10.48392 -2.33634,-15.79159 0.39333,-3.12563 0.48839,-6.28282 0.71872,-9.41775 1.07561,-8.09383 4.83285,-15.68401 10.30129,-21.25007 1.40244,-3.48139 4.21669,-6.92067 7.90457,-7.1512 2.48542,-0.0792 4.33227,2.26558 5.14908,4.60845 2.5376,3.8993 1.90564,9.02462 0.53523,13.27033 -1.06586,3.29023 -2.19956,6.56107 -3.23031,9.85894 -3.58812,8.86312 -8.78253,16.91103 -14.863,23.9347 -1.20815,1.02464 -2.65826,1.72331 -4.17924,1.93819 z"
				id="path3068"
				inkscape:connector-curvature="0" />
			<path style="opacity:0.55504587;fill:#800000;stroke:none;filter:url(#filter3974)" d="m 217.03341,849.11282 c 3.03911,0.83836 5.74123,2.29977 8.09212,4.30869 3.58366,2.52468 9.09594,1.29379 10.90684,-2.73214 2.18022,-2.54407 0.93942,-8.7887 2.94356,-9.51844 1.4577,2.76095 4.65105,4.41905 4.83682,7.88666 0.91381,3.15214 1.30825,6.65666 0.377,9.75973 -2.19744,3.37627 -6.72683,0.8921 -10.01076,2.08938 -5.89364,0.45198 -12.02174,-1.69595 -16.32374,-5.64673 -1.92848,-1.90729 -1.5629,-3.89518 -0.82184,-6.14715 z"
				id="path3860"
				inkscape:connector-curvature="0" />
			<path style="opacity:0.42201837;fill:#ffffff;stroke:none;filter:url(#filter3970)"
				d="m 191.92898,815.12471 c 0.48947,-5.71965 8.69414,-8.54432 14.36045,-8.87116 6.36295,2.03498 12.45989,4.66531 18.94627,6.51711 5.0496,0.56963 11.53612,10.76036 3.02521,9.81074 -5.05732,-1.87472 -7.69582,-7.33173 -14.27391,-6.2913 -5.87011,-2.30807 -11.7592,-1.43175 -17.61064,0.54551 -1.69222,0.31369 -3.48804,-0.52453 -4.44738,-1.7109 z" id="path3862"
				transform="matrix(0.94279892,0,0,0.89937695,10.367999,81.447236)"
				inkscape:connector-curvature="0" />
			<path style="opacity:0.39908256;fill:#ffffff;stroke:none;filter:url(#filter3962)" d="m 299.4152,826.76173 c 1.07579,-6.06563 2.59715,-12.41965 8.70496,-15.86182 6.08391,-3.1623 13.7506,-3.3124 20.42301,-3.28471 4.32372,1.13756 11.23917,9.20603 6.64593,11.69587 -1.76634,-6.30675 -7.96856,-6.46293 -13.67024,-4.06426 -8.30422,0.18846 -11.04357,8.8967 -17.56884,11.99022 -4.20711,-0.60829 -3.01376,1.55574 -5.96017,4.03272 -0.0697,-1.55216 -0.175,-3.51426 1.42535,-4.50802 z"
				id="path3866"
				inkscape:connector-curvature="0" />
			<path style="opacity:0.50458715;fill:#800000;stroke:none;filter:url(#filter3948)" d="m 291.42901,847.30121 c 5.1605,-0.87442 6.54792,8.30899 12.32761,5.35968 5.8336,-2.69082 12.12442,-4.73453 17.13006,-8.90914 3.1471,-2.58043 0.75869,6.85809 -2.32007,5.84367 -2.29139,5.76651 -8.8522,8.20363 -12.2096,13.27718 -4.92788,4.52116 -14.43424,3.05498 -15.59242,-4.23158 0.2935,-3.31988 -4.31803,-10.31119 0.66442,-11.33981 z"
				id="path3872"
				inkscape:connector-curvature="0" />
			<path style="opacity:0.46788994;fill:#800000;stroke:none;filter:url(#filter3916)" d="m 255.56859,773.56008 c -7.81598,-1.8103 -17.47858,10.46719 -8.42663,15.08716 7.4459,1.66296 14.36736,8.71047 22.00887,6.75064 5.01903,-3.7781 17.17871,-11.86629 7.57999,-17.46687 -6.91222,-2.16914 -14.1344,-2.80206 -21.16223,-4.37093 z"
				id="path3901"
				inkscape:connector-curvature="0" />
		</g>
		<rect style="opacity:0.42201837;fill:#000000;fill-opacity:1;fill-rule:nonzero;stroke:none"
			height="511.31476" id="rect3992" width="814.12726" x="-6.9844093" y="556.79144" />
	</g>
</svg>
